# xmcd
#
# Track frame offsets: 
#        182
#        18355
#        35052
#        52592
#        68820
#        83975
#        102490
#        125185
#        147597
#        166075
#        181497
#        206695
#        221512
#        242820
#        259912
#        276702
#        292567
#        311270
#
# Disc length: 4381 seconds
#
# Revision: 9
# Processed by: cddbd v1.5.2PL0 Copyright (c) Steve Scherf et al.
# Submitted via: ExactAudioCopyFreeDBPlugin 1.0
#
DISCID=10111b12
DTITLE=Average White Band - Pickin' Up The Pieces - The Best of Averag
DTITLE=e White Band (1974-1980)
DYEAR=1992
DGENRE=Funk
TTITLE0=Pick Up the Pieces
TTITLE1=Person To Person
TTITLE2=Got The Love
TTITLE3=You Got It
TTITLE4=Work To Do
TTITLE5=Cut The Cake
TTITLE6=If I Ever Lose This Heaven
TTITLE7=School Boy Crush
TTITLE8=Queen of My Soul
TTITLE9=Cloudy (Live Version)
TTITLE10=A Love Of Your Own
TTITLE11=Soul Searching
TTITLE12=I'm The One (Live Version)
TTITLE13=Get It Up (With Ben E. King)
TTITLE14=Your Love Is a Miracle
TTITLE15=When Will You Be Mine
TTITLE16=Let's Go 'Round Again
TTITLE17=For You, For Love
EXTD=LABEL =Rhino Records Inc.\nID =R271054\nUPC =08122-71054-26\nC
EXTD=OPYRIGHT =1992 YEAR: 1992
EXTT0=
EXTT1=
EXTT2=
EXTT3=
EXTT4=
EXTT5=
EXTT6=
EXTT7=
EXTT8=
EXTT9=
EXTT10=
EXTT11=
EXTT12=
EXTT13=
EXTT14=
EXTT15=
EXTT16=
EXTT17=
PLAYORDER=
